<svg xmlns="http://www.w3.org/2000/svg" xmlns:xlink="http://www.w3.org/1999/xlink" width="124" height="116" viewBox="0 0 124 116"><defs><style>.a{fill:url(#a);}</style><linearGradient id="a" x1="0.5" y1="1" x2="0.5" gradientUnits="objectBoundingBox"><stop offset="0" stop-color="#fd5900"/><stop offset="1" stop-color="#ffb300"/></linearGradient></defs><g transform="translate(-8 -18)"><g transform="translate(8 18)"><path class="a" d="M120.367,52.25H109.227V41.375A10.9,10.9,0,0,0,98.328,30.5H80.164V19.625A3.627,3.627,0,0,0,76.531,16H47.469a3.627,3.627,0,0,0-3.633,3.625V30.5H25.672a10.9,10.9,0,0,0-10.9,10.875V52.25H3.633A3.627,3.627,0,0,0,0,55.875V66.75a3.627,3.627,0,0,0,3.633,3.625c6.819,0,10.167,3.348,11.141,4.683V99.375a25.357,25.357,0,0,0,21.8,25.009v3.991a3.633,3.633,0,0,0,7.266,0V124.75H80.164v3.625a3.633,3.633,0,0,0,7.266,0v-3.991a25.357,25.357,0,0,0,21.8-25.009V75.066c1-1.371,4.352-4.691,11.141-4.691A3.627,3.627,0,0,0,124,66.75V55.875A3.627,3.627,0,0,0,120.367,52.25ZM14.773,65.77a22.582,22.582,0,0,0-7.508-2.336V59.5h7.508ZM51.1,23.25H72.9V30.5H51.1Zm50.859,76.125A18.166,18.166,0,0,1,83.8,117.5H40.2A18.166,18.166,0,0,1,22.039,99.375V59.5h21.8V99.375A3.627,3.627,0,0,0,47.469,103H76.531a3.627,3.627,0,0,0,3.633-3.625V59.5h21.8ZM51.1,95.75V59.5H72.9V95.75Zm50.859-43.5H22.039V41.375a3.631,3.631,0,0,1,3.633-3.625H98.328a3.631,3.631,0,0,1,3.633,3.625Zm14.773,11.184a22.576,22.576,0,0,0-7.508,2.336V59.5h7.508ZM62,66.75a3.625,3.625,0,1,0,3.633,3.625A3.629,3.629,0,0,0,62,66.75Zm0,14.5a3.625,3.625,0,1,0,3.633,3.625A3.629,3.629,0,0,0,62,81.25Z" transform="translate(0 -16)"/></g></g></svg>